# xmcd CD database file
#
# Track frame offsets:
#	150
#	13691
#	27959
#	39533
#	49930
#	63702
#	72610
#	82788
#	95949
#	107352
#	119748
#	132443
#	143305
#	153718
#
# Disc length: 2189 seconds
#
# Revision: 0
# Processed by: cddbd v1.5.2PL0 Copyright (c) Steve Scherf et al.
# Submitted via: CDex 1.70beta2
#
DISCID=c7088b0e
DTITLE=Ray Charles - Going Away Blues CD 1
DYEAR=2005
DGENRE=Blues
TTITLE0=Baby Let Me Hold Your Hand
TTITLE1=Kiss Me Baby
TTITLE2=C.C. Rider
TTITLE3=I Wonder Who's Kissing Her Now
TTITLE4=I’m Going Down To The River
TTITLE5=All To Myself Alone
TTITLE6=Sitting On Top Of The World
TTITLE7=Alone In The City
TTITLE8=Ray Charles Blues
TTITLE9=Rockin' Chair Blues
TTITLE10=Can Anyone Ask For More
TTITLE11=A Sentimental Blues
TTITLE12=Hey Now
TTITLE13=They're Crazy About Me
EXTD=YEAR: 2005
EXTT0=
EXTT1=
EXTT2=
EXTT3=
EXTT4=
EXTT5=
EXTT6=
EXTT7=
EXTT8=
EXTT9=
EXTT10=
EXTT11=
EXTT12=
EXTT13=
PLAYORDER=
